<?xml version="1.0" standalone="no"?>
<!DOCTYPE svg PUBLIC "-//W3C//DTD SVG 20010904//EN"
 "http://www.w3.org/TR/2001/REC-SVG-20010904/DTD/svg10.dtd">
<svg version="1.0" xmlns="http://www.w3.org/2000/svg"
 width="246.000000pt" height="66.000000pt" viewBox="0 0 246.000000 66.000000"
 preserveAspectRatio="xMidYMid meet">

<g transform="translate(0.000000,66.000000) scale(0.100000,-0.100000)"
fill="#000000" stroke="none">
<path d="M2311 632 c43 -22 59 -38 81 -81 27 -52 28 -58 28 -211 0 -153 -1
-159 -28 -211 -22 -43 -38 -59 -81 -81 l-53 -28 -1129 0 c-746 0 -1129 -3
-1129 -10 0 -7 417 -10 1230 -10 l1230 0 0 330 0 330 -101 0 -101 0 53 -28z"/>
</g>
</svg>
