<?xml version="1.0" standalone="no"?>
<!DOCTYPE svg PUBLIC "-//W3C//DTD SVG 20010904//EN"
 "http://www.w3.org/TR/2001/REC-SVG-20010904/DTD/svg10.dtd">
<svg version="1.0" xmlns="http://www.w3.org/2000/svg"
 width="250.000000pt" height="72.000000pt" viewBox="0 0 250.000000 72.000000"
 preserveAspectRatio="xMidYMid meet">

<g transform="translate(0.000000,72.000000) scale(0.100000,-0.100000)"
fill="#000000" stroke="none">
<path d="M0 360 l0 -360 1250 0 c827 0 1250 3 1250 10 0 7 -390 10 -1149 10
l-1149 0 -53 28 c-43 22 -59 38 -81 81 -27 52 -28 58 -28 211 0 153 1 159 28
211 22 43 38 59 81 81 l53 28 1149 0 1149 0 0 30 0 30 -1250 0 -1250 0 0 -360z"/>
</g>
</svg>
